<svg width="69" height="69" viewBox="0 0 69 69" fill="none" xmlns="http://www.w3.org/2000/svg">
<g clip-path="url(#clip0_11:308)">
<path d="M32.4671 56.6579C32.4676 56.6584 32.4681 56.6588 32.4687 56.6594C32.5351 56.7257 32.6051 56.7886 32.6777 56.8483C32.711 56.8757 32.7462 56.8994 32.7804 56.9251C32.8212 56.9557 32.8613 56.9874 32.9037 57.0158C32.9447 57.0432 32.9871 57.0669 33.0292 57.092C33.0677 57.115 33.1053 57.1391 33.1449 57.1603C33.1878 57.1832 33.2319 57.2026 33.2757 57.2232C33.3169 57.2428 33.3576 57.2634 33.3999 57.2809C33.4424 57.2984 33.4858 57.3127 33.5289 57.3281C33.5743 57.3444 33.619 57.3618 33.6654 57.3758C33.7085 57.3889 33.7523 57.3984 33.796 57.4093C33.8433 57.4213 33.8901 57.4346 33.9383 57.4441C33.9888 57.4541 34.0398 57.46 34.0906 57.4673C34.1325 57.4732 34.1739 57.4813 34.2163 57.4855C34.405 57.5041 34.5951 57.5041 34.7838 57.4855C34.8263 57.4813 34.8676 57.4734 34.9096 57.4673C34.9604 57.46 35.0113 57.4541 35.0618 57.4441C35.1101 57.4346 35.1569 57.4213 35.2042 57.4093C35.2477 57.3984 35.2916 57.3889 35.3347 57.3758C35.3811 57.3618 35.426 57.3444 35.4713 57.3281C35.5144 57.3126 35.5578 57.2984 35.6002 57.2809C35.6425 57.2634 35.6832 57.2428 35.7245 57.2232C35.7683 57.2026 35.8123 57.1832 35.8552 57.1603C35.8948 57.1391 35.9324 57.1149 35.971 57.092C36.013 57.0669 36.0555 57.0432 36.0964 57.0158C36.1389 56.9874 36.1789 56.9557 36.2197 56.9251C36.254 56.8995 36.2892 56.8757 36.3224 56.8483C36.3951 56.7886 36.465 56.7258 36.5315 56.6594C36.532 56.6588 36.5325 56.6584 36.5331 56.6579L56.658 36.5329C57.7808 35.4102 57.7808 33.5898 56.658 32.4671C55.5353 31.3443 53.7149 31.3443 52.5922 32.4671L37.375 47.6841V2.87496C37.375 1.28715 36.0878 0 34.5 0C32.9122 0 31.625 1.28715 31.625 2.87496V47.6841L16.408 32.4671C15.2853 31.3443 13.4648 31.3443 12.3421 32.4671C11.2194 33.5898 11.2194 35.4102 12.3421 36.5329L32.4671 56.6579Z" fill="white"/>
<path d="M54.625 63.4994H14.375C12.7872 63.4994 11.5001 64.7865 11.5001 66.3743C11.5001 67.9622 12.7872 69.2494 14.375 69.2494H54.6251C56.2129 69.2494 57.5001 67.9623 57.5001 66.3745C57.5001 64.7867 56.2128 63.4994 54.625 63.4994Z" fill="white"/>
</g>
<defs>
<clipPath id="clip0_11:308">
<rect width="69" height="69" fill="white"/>
</clipPath>
</defs>
</svg>
