<svg width="71" height="71" viewBox="0 0 71 71" fill="none" xmlns="http://www.w3.org/2000/svg">
<path d="M9.90775 46.0627C9.43056 46.0627 8.97292 45.8731 8.6355 45.5357C8.29808 45.1983 8.10852 44.7406 8.10852 44.2634V31.4289C8.10852 30.9517 8.29808 30.4941 8.6355 30.1567C8.97292 29.8193 9.43056 29.6297 9.90775 29.6297C10.3849 29.6297 10.8426 29.8193 11.18 30.1567C11.5174 30.4941 11.707 30.9517 11.707 31.4289V44.2634C11.707 44.7406 11.5174 45.1983 11.18 45.5357C10.8426 45.8731 10.3849 46.0627 9.90775 46.0627Z" fill="white"/>
<path d="M18.0151 17.4046C16.2939 17.4046 14.6114 16.8942 13.1804 15.938C11.7493 14.9817 10.6339 13.6226 9.97523 12.0325C9.31658 10.4424 9.14424 8.69263 9.48002 7.00455C9.8158 5.31647 10.6446 3.76588 11.8616 2.54884C13.0787 1.33181 14.6293 0.502995 16.3174 0.167216C18.0054 -0.168564 19.7552 0.00377064 21.3453 0.662425C22.9354 1.32108 24.2945 2.43647 25.2508 3.86755C26.207 5.29864 26.7174 6.98113 26.7174 8.70228C26.7148 11.0095 25.7971 13.2215 24.1657 14.8529C22.5343 16.4844 20.3223 17.402 18.0151 17.4046ZM18.0151 3.59846C17.0056 3.59846 16.0189 3.8978 15.1796 4.45861C14.3402 5.01943 13.6861 5.81653 13.2998 6.74913C12.9135 7.68173 12.8124 8.70794 13.0093 9.69798C13.2063 10.688 13.6924 11.5974 14.4061 12.3112C15.1199 13.025 16.0293 13.5111 17.0194 13.708C18.0094 13.905 19.0356 13.8039 19.9682 13.4176C20.9008 13.0313 21.6979 12.3771 22.2587 11.5378C22.8196 10.6985 23.1189 9.71172 23.1189 8.70228C23.1173 7.34915 22.5791 6.0519 21.6223 5.09509C20.6655 4.13828 19.3682 3.60005 18.0151 3.59846Z" fill="white"/>
<path d="M46.3866 30.8652C46.0391 30.8654 45.6991 30.765 45.4075 30.5762C45.1158 30.3873 44.8851 30.1181 44.7432 29.801C44.6012 29.4839 44.5542 29.1325 44.6076 28.7892C44.661 28.4459 44.8127 28.1254 45.0443 27.8664L54.8202 16.9079C54.9777 16.7316 55.1684 16.588 55.3814 16.4854C55.5944 16.3827 55.8256 16.3231 56.0616 16.3097C56.2977 16.2964 56.5341 16.3297 56.7573 16.4078C56.9805 16.4858 57.1861 16.6071 57.3625 16.7646C57.5388 16.9221 57.6824 17.1128 57.785 17.3258C57.8877 17.5389 57.9474 17.77 57.9607 18.0061C57.974 18.2421 57.9407 18.4785 57.8626 18.7017C57.7846 18.9249 57.6633 19.1306 57.5058 19.3069L47.73 30.2594C47.5615 30.4495 47.3547 30.6017 47.1231 30.7061C46.8916 30.8105 46.6406 30.8647 46.3866 30.8652Z" fill="white"/>
<path d="M65.6023 47.1122H33.3206C32.8434 47.1122 32.3857 46.9227 32.0483 46.5852C31.7109 46.2478 31.5213 45.7902 31.5213 45.313C31.5213 44.8358 31.7109 44.3782 32.0483 44.0407C32.3857 43.7033 32.8434 43.5138 33.3206 43.5138H65.6023C66.0795 43.5138 66.5372 43.3242 66.8746 42.9868C67.212 42.6494 67.4016 42.1917 67.4016 41.7145V5.43846C67.4016 4.96128 67.212 4.50363 66.8746 4.16621C66.5372 3.82879 66.0795 3.63923 65.6023 3.63923H30.3062C29.8291 3.63923 29.3714 3.44967 29.034 3.11225C28.6966 2.77483 28.507 2.31719 28.507 1.84C28.507 1.36282 28.6966 0.905175 29.034 0.567754C29.3714 0.230333 29.8291 0.0407715 30.3062 0.0407715H65.6023C67.0339 0.0407715 68.4068 0.609455 69.4191 1.62172C70.4313 2.63398 71 4.0069 71 5.43846V41.7145C71 43.1461 70.4313 44.519 69.4191 45.5313C68.4068 46.5435 67.0339 47.1122 65.6023 47.1122Z" fill="white"/>
<path d="M18.0151 71.0012H9.90775C9.43056 71.0012 8.97292 70.8117 8.6355 70.4742C8.29808 70.1368 8.10852 69.6792 8.10852 69.202V44.2635C8.10852 43.7863 8.29808 43.3286 8.6355 42.9912C8.97292 42.6538 9.43056 42.4642 9.90775 42.4642C10.3849 42.4642 10.8426 42.6538 11.18 42.9912C11.5174 43.3286 11.707 43.7863 11.707 44.2635V67.4028H18.0151C18.4923 67.4028 18.9499 67.5923 19.2873 67.9298C19.6247 68.2672 19.8143 68.7248 19.8143 69.202C19.8143 69.6792 19.6247 70.1368 19.2873 70.4742C18.9499 70.8117 18.4923 71.0012 18.0151 71.0012Z" fill="white"/>
<path d="M26.1236 71.0012H18.0151C17.5379 71.0012 17.0803 70.8116 16.7428 70.4742C16.4054 70.1368 16.2159 69.6791 16.2159 69.202V45.313C16.2159 44.8358 16.4054 44.3782 16.7428 44.0407C17.0803 43.7033 17.5379 43.5138 18.0151 43.5138C18.4923 43.5138 18.9499 43.7033 19.2873 44.0407C19.6248 44.3782 19.8143 44.8358 19.8143 45.313V67.4027H24.3244V33.3853C24.3243 32.6386 24.5456 31.9086 24.9605 31.2877C25.3753 30.6668 25.965 30.1829 26.6549 29.8972C27.3449 29.6115 28.104 29.5368 28.8364 29.6826C29.5687 29.8285 30.2414 30.1883 30.7692 30.7164L33.5892 33.5328C33.7981 33.7427 34.0466 33.9091 34.3202 34.0224C34.5938 34.1356 34.8872 34.1935 35.1833 34.1926H43.5569C43.8571 34.1926 44.1542 34.1328 44.4309 34.0165C44.7075 33.9003 44.9582 33.73 45.1683 33.5156C45.3783 33.3012 45.5434 33.0471 45.6539 32.7681C45.7645 32.4891 45.8182 32.1908 45.812 31.8907C45.7868 30.6733 44.7396 29.6837 43.4778 29.6837H36.8578C36.3808 29.6833 35.9235 29.4934 35.5864 29.1559L31.7132 25.284C31.0106 24.5772 30.1746 24.0169 29.2538 23.6356C28.333 23.2543 27.3457 23.0595 26.3491 23.0625H24.9529L22.2337 25.3236C21.0491 26.3081 19.5572 26.8471 18.0169 26.8471C16.4765 26.8471 14.9847 26.3081 13.8001 25.3236L11.0785 23.0625H9.90776C8.23501 23.0644 6.63132 23.7298 5.44851 24.9126C4.2657 26.0954 3.60036 27.6991 3.59846 29.3718C3.59846 29.849 3.4089 30.3067 3.07148 30.6441C2.73406 30.9815 2.27641 31.1711 1.79923 31.1711C1.32204 31.1711 0.864403 30.9815 0.526982 30.6441C0.189561 30.3067 0 29.849 0 29.3718C0.00285749 26.745 1.04763 24.2266 2.90507 22.3691C4.76252 20.5117 7.28093 19.4669 9.90776 19.4641H11.7286C12.1489 19.4642 12.5558 19.6115 12.8789 19.8803L16.0983 22.5563C16.6371 23.0052 17.3162 23.2509 18.0175 23.2509C18.7187 23.2509 19.3978 23.0052 19.9367 22.5563L23.1537 19.8791C23.4767 19.6103 23.8837 19.463 24.304 19.4629H26.3515C27.8208 19.4588 29.2763 19.7463 30.6338 20.3086C31.9912 20.8708 33.2237 21.6968 34.2597 22.7387L37.6063 26.0852H43.4838C46.6912 26.0852 49.3517 28.6569 49.4152 31.8188C49.431 32.5973 49.2913 33.3712 49.0043 34.095C48.7173 34.8189 48.2888 35.4782 47.7438 36.0344C47.1988 36.5905 46.5483 37.0324 45.8304 37.334C45.1125 37.6357 44.3416 37.791 43.5629 37.791H35.1785C34.4097 37.7932 33.648 37.6428 32.9377 37.3486C32.2274 37.0544 31.5824 36.6221 31.0403 36.077L28.2251 33.2582C28.2021 33.2353 28.1733 33.2192 28.1419 33.2114C28.1104 33.2036 28.0774 33.2044 28.0464 33.2138C28.0113 33.2256 27.9808 33.2482 27.9593 33.2784C27.9378 33.3085 27.9263 33.3447 27.9264 33.3817V69.1984C27.9269 69.4352 27.8806 69.6699 27.7902 69.8888C27.6997 70.1078 27.567 70.3067 27.3995 70.4742C27.232 70.6417 27.033 70.7745 26.8141 70.8649C26.5951 70.9554 26.3605 71.0017 26.1236 71.0012Z" fill="white"/>
<path d="M5.85349 50.1169C4.30154 50.1153 2.8136 49.4981 1.7162 48.4007C0.618803 47.3033 0.00158768 45.8154 0 44.2634V29.3706C0 28.8934 0.189561 28.4358 0.526982 28.0983C0.864403 27.7609 1.32204 27.5714 1.79923 27.5714C2.27641 27.5714 2.73406 27.7609 3.07148 28.0983C3.4089 28.4358 3.59846 28.8934 3.59846 29.3706V44.2634C3.59846 44.8615 3.83604 45.4351 4.25894 45.858C4.68184 46.2809 5.25542 46.5184 5.85349 46.5184C6.45157 46.5184 7.02514 46.2809 7.44804 45.858C7.87095 45.4351 8.10853 44.8615 8.10853 44.2634C8.10853 43.7862 8.29809 43.3286 8.63551 42.9912C8.97293 42.6537 9.43057 42.4642 9.90776 42.4642C10.3849 42.4642 10.8426 42.6537 11.18 42.9912C11.5174 43.3286 11.707 43.7862 11.707 44.2634C11.7054 45.8154 11.0882 47.3033 9.99078 48.4007C8.89339 49.4981 7.40545 50.1153 5.85349 50.1169Z" fill="white"/>
<path d="M56.6194 71.0012H1.80283C1.32565 71.0012 0.868004 70.8116 0.530583 70.4742C0.193162 70.1368 0.00360107 69.6791 0.00360107 69.2019C0.00360107 68.7248 0.193162 68.2671 0.530583 67.9297C0.868004 67.5923 1.32565 67.4027 1.80283 67.4027H56.6194C57.0965 67.4027 57.5542 67.5923 57.8916 67.9297C58.229 68.2671 58.4186 68.7248 58.4186 69.2019C58.4186 69.6791 58.229 70.1368 57.8916 70.4742C57.5542 70.8116 57.0965 71.0012 56.6194 71.0012Z" fill="white"/>
<path d="M46.8315 19.9055H37.5031C37.026 19.9055 36.5683 19.7159 36.2309 19.3785C35.8935 19.0411 35.7039 18.5834 35.7039 18.1062C35.7039 17.6291 35.8935 17.1714 36.2309 16.834C36.5683 16.4966 37.026 16.307 37.5031 16.307H46.8315C47.3087 16.307 47.7664 16.4966 48.1038 16.834C48.4412 17.1714 48.6308 17.6291 48.6308 18.1062C48.6308 18.5834 48.4412 19.0411 48.1038 19.3785C47.7664 19.7159 47.3087 19.9055 46.8315 19.9055Z" fill="white"/>
<path d="M56.16 11.7717H37.5031C37.026 11.7717 36.5683 11.5822 36.2309 11.2448C35.8935 10.9073 35.7039 10.4497 35.7039 9.97251C35.7039 9.49532 35.8935 9.03768 36.2309 8.70026C36.5683 8.36284 37.026 8.17328 37.5031 8.17328H56.16C56.6372 8.17328 57.0948 8.36284 57.4322 8.70026C57.7696 9.03768 57.9592 9.49532 57.9592 9.97251C57.9592 10.4497 57.7696 10.9073 57.4322 11.2448C57.0948 11.5822 56.6372 11.7717 56.16 11.7717Z" fill="white"/>
</svg>
