<svg width="24" height="24" viewBox="0 0 24 24" fill="none" xmlns="http://www.w3.org/2000/svg">
<path fill-rule="evenodd" clip-rule="evenodd" d="M12.001 0.800018C8.95921 0.800018 8.57747 0.813318 7.3828 0.867686C6.19045 0.922286 5.37657 1.11105 4.66443 1.38802C3.92779 1.67409 3.30292 2.05676 2.68038 2.67954C2.05737 3.30208 1.6747 3.92695 1.3877 4.66336C1.11003 5.37573 0.921028 6.18984 0.867361 7.38172C0.813927 8.5764 0.799927 8.95837 0.799927 12.0001C0.799927 15.0419 0.81346 15.4225 0.867594 16.6171C0.922428 17.8095 1.1112 18.6234 1.38793 19.3355C1.67424 20.0722 2.05691 20.697 2.67968 21.3196C3.30199 21.9426 3.92686 22.3262 4.66303 22.6122C5.37564 22.8892 6.18975 23.078 7.38186 23.1326C8.57654 23.187 8.95805 23.2003 11.9996 23.2003C15.0416 23.2003 15.4221 23.187 16.6168 23.1326C17.8092 23.078 18.624 22.8892 19.3366 22.6122C20.073 22.3262 20.6969 21.9426 21.3192 21.3196C21.9422 20.697 22.3249 20.0722 22.6119 19.3357C22.8873 18.6234 23.0763 17.8093 23.1323 16.6174C23.1859 15.4227 23.1999 15.0419 23.1999 12.0001C23.1999 8.95837 23.1859 8.57663 23.1323 7.38195C23.0763 6.18961 22.8873 5.37573 22.6119 4.66359C22.3249 3.92695 21.9422 3.30208 21.3192 2.67954C20.6962 2.05653 20.0732 1.67386 19.3359 1.38802C18.6219 1.11105 17.8075 0.922286 16.6152 0.867686C15.4205 0.813318 15.0402 0.800018 11.9975 0.800018H12.001ZM10.9962 2.81837C11.1913 2.81807 11.4012 2.81816 11.6277 2.81826L12.001 2.81837C14.9914 2.81837 15.3459 2.8291 16.5268 2.88277C17.6188 2.93271 18.2115 3.11517 18.6063 3.26848C19.1289 3.47148 19.5016 3.71415 19.8933 4.10615C20.2853 4.49816 20.528 4.87149 20.7315 5.39416C20.8848 5.7885 21.0675 6.38118 21.1172 7.47319C21.1709 8.65387 21.1825 9.00854 21.1825 11.9976C21.1825 14.9866 21.1709 15.3413 21.1172 16.5219C21.0673 17.614 20.8848 18.2066 20.7315 18.601C20.5285 19.1236 20.2853 19.4958 19.8933 19.8876C19.5013 20.2796 19.1292 20.5223 18.6063 20.7253C18.2119 20.8793 17.6188 21.0613 16.5268 21.1112C15.3461 21.1649 14.9914 21.1765 12.001 21.1765C9.01033 21.1765 8.65589 21.1649 7.47521 21.1112C6.3832 21.0608 5.79053 20.8783 5.39549 20.725C4.87282 20.522 4.49948 20.2794 4.10748 19.8873C3.71547 19.4953 3.4728 19.1229 3.26933 18.6C3.11603 18.2057 2.93333 17.613 2.88363 16.521C2.82996 15.3403 2.81923 14.9857 2.81923 11.9948C2.81923 9.00387 2.82996 8.65106 2.88363 7.47039C2.93356 6.37837 3.11603 5.7857 3.26933 5.3909C3.47234 4.86823 3.71547 4.49489 4.10748 4.10288C4.49948 3.71088 4.87282 3.46821 5.39549 3.26474C5.79029 3.11074 6.3832 2.92874 7.47521 2.87857C8.50842 2.8319 8.90883 2.8179 10.9962 2.81557V2.81837ZM16.6355 6.0216C16.6355 5.27936 17.2375 4.67806 17.9795 4.67806V4.67759C18.7215 4.67759 19.3235 5.2796 19.3235 6.0216C19.3235 6.76361 18.7215 7.36562 17.9795 7.36562C17.2375 7.36562 16.6355 6.76361 16.6355 6.0216ZM12.0008 6.24841C8.82447 6.24854 6.24927 8.82382 6.24927 12.0001C6.24927 15.1765 8.82459 17.7507 12.001 17.7507C15.1774 17.7507 17.7518 15.1765 17.7518 12.0001C17.7518 8.82374 15.1772 6.24841 12.0008 6.24841ZM15.7344 12.0001C15.7344 9.93813 14.0628 8.26675 12.0011 8.26675C9.93907 8.26675 8.26768 9.93813 8.26768 12.0001C8.26768 14.0619 9.93907 15.7335 12.0011 15.7335C14.0628 15.7335 15.7344 14.0619 15.7344 12.0001Z" fill="white"/>
</svg>
