<svg width="71" height="72" viewBox="0 0 71 72" fill="none" xmlns="http://www.w3.org/2000/svg">
<g clip-path="url(#clip0_23:44)">
<path d="M63.105 46.8896H8.34722C7.87003 46.8896 7.41239 46.7001 7.07497 46.3626C6.73755 46.0252 6.54799 45.5676 6.54799 45.0904V7.84274C6.55053 5.77572 7.37278 3.79408 8.83439 2.33248C10.296 0.870868 12.2776 0.0486209 14.3447 0.0460815H57.1075C59.1746 0.0486209 61.1562 0.870868 62.6178 2.33248C64.0794 3.79408 64.9017 5.77572 64.9042 7.84274V45.0904C64.9042 45.5676 64.7146 46.0252 64.3772 46.3626C64.0398 46.7001 63.5822 46.8896 63.105 46.8896ZM10.1464 43.2912H61.3058V7.84274C61.3058 6.72931 60.8634 5.66148 60.0761 4.87417C59.2888 4.08685 58.221 3.64454 57.1075 3.64454H14.3447C13.2312 3.64454 12.1634 4.08685 11.3761 4.87417C10.5888 5.66148 10.1464 6.72931 10.1464 7.84274V43.2912Z" fill="#9F2D20"/>
<path d="M55.3083 39.0935H16.1439C15.6667 39.0935 15.2091 38.9039 14.8716 38.5665C14.5342 38.2291 14.3447 37.7714 14.3447 37.2942V9.64127C14.3447 9.16409 14.5342 8.70645 14.8716 8.36902C15.2091 8.0316 15.6667 7.84204 16.1439 7.84204H55.3083C55.7855 7.84204 56.2431 8.0316 56.5806 8.36902C56.918 8.70645 57.1075 9.16409 57.1075 9.64127C57.1075 10.1185 56.918 10.5761 56.5806 10.9135C56.2431 11.2509 55.7855 11.4405 55.3083 11.4405H17.9431V35.495H53.5091V17.4379C53.5091 16.9608 53.6986 16.5031 54.0361 16.1657C54.3735 15.8283 54.8311 15.6387 55.3083 15.6387C55.7855 15.6387 56.2431 15.8283 56.5806 16.1657C56.918 16.5031 57.1075 16.9608 57.1075 17.4379V37.2942C57.1075 37.7714 56.918 38.2291 56.5806 38.5665C56.2431 38.9039 55.7855 39.0935 55.3083 39.0935Z" fill="#9F2D20"/>
<path d="M63.2033 71.0058H7.79666C5.72954 71.0036 3.74772 70.1815 2.28604 68.7198C0.824367 67.2581 0.00222254 65.2763 0 63.2092V61.4099C0 60.9328 0.18956 60.4751 0.526981 60.1377C0.864402 59.8003 1.32204 59.6107 1.79923 59.6107H69.2008C69.678 59.6107 70.1356 59.8003 70.473 60.1377C70.8104 60.4751 71 60.9328 71 61.4099V63.2092C70.9975 65.2762 70.1752 67.2578 68.7136 68.7194C67.252 70.181 65.2704 71.0033 63.2033 71.0058ZM3.59846 63.2092C3.59846 63.7605 3.70705 64.3064 3.91803 64.8158C4.12901 65.3251 4.43825 65.7879 4.82808 66.1777C5.21792 66.5676 5.68073 66.8768 6.19008 67.0878C6.69943 67.2988 7.24534 67.4074 7.79666 67.4074H63.2033C63.7547 67.4074 64.3006 67.2988 64.8099 67.0878C65.3193 66.8768 65.7821 66.5676 66.1719 66.1777C66.5618 65.7879 66.871 65.3251 67.082 64.8158C67.293 64.3064 67.4015 63.7605 67.4015 63.2092H3.59846Z" fill="#9F2D20"/>
<path d="M69.2009 63.2091H1.79931C1.50512 63.2093 1.21538 63.1373 0.955475 62.9994C0.695574 62.8616 0.473442 62.6621 0.308534 62.4185C0.143627 62.1748 0.040976 61.8945 0.00957597 61.602C-0.021824 61.3094 0.018984 61.0137 0.128425 60.7406L6.67762 44.4204C6.81129 44.0869 7.04176 43.801 7.33934 43.5996C7.63693 43.3982 7.98799 43.2905 8.34731 43.2905H63.1051C63.4708 43.2918 63.8274 43.4046 64.1274 43.6137C64.4274 43.8229 64.6566 44.1185 64.7844 44.4612L70.8801 60.7742C70.9818 61.0463 71.0161 61.3391 70.98 61.6273C70.9439 61.9156 70.8386 62.1909 70.673 62.4296C70.5074 62.6683 70.2864 62.8633 70.029 62.998C69.7716 63.1328 69.4854 63.2031 69.1949 63.2032L69.2009 63.2091ZM4.45977 59.6107H66.6028L61.8564 46.8889H9.55879L4.45977 59.6107Z" fill="#9F2D20"/>
<path d="M45.3142 63.2091H25.8825C25.6243 63.2092 25.369 63.1538 25.1342 63.0465C24.8993 62.9392 24.6902 62.7826 24.5212 62.5873C24.3523 62.392 24.2273 62.1626 24.1548 61.9148C24.0824 61.6669 24.0641 61.4064 24.1013 61.1508L25.4327 52.0275C25.495 51.5996 25.7093 51.2084 26.0364 50.9256C26.3635 50.6427 26.7815 50.4872 27.214 50.4874H44.0787C44.5142 50.4875 44.9349 50.6457 45.2627 50.9324C45.5905 51.2192 45.8031 51.6151 45.8612 52.0467L47.0966 61.17C47.1308 61.4242 47.1103 61.6828 47.0364 61.9284C46.9625 62.174 46.8369 62.4009 46.6681 62.594C46.4993 62.7871 46.2912 62.9419 46.0577 63.048C45.8242 63.1541 45.5707 63.209 45.3142 63.2091ZM27.96 59.6107H43.2547L42.5062 54.0858H28.7661L27.96 59.6107Z" fill="#9F2D20"/>
</g>
<defs>
<clipPath id="clip0_23:44">
<rect width="71" height="71" fill="white" transform="translate(0 0.0256348)"/>
</clipPath>
</defs>
</svg>
