<svg width="17" height="17" viewBox="0 0 17 17" fill="none" xmlns="http://www.w3.org/2000/svg">
<g clip-path="url(#clip0_11_293)">
<path d="M16.813 3.84161C16.2613 2.06122 14.6139 0.848092 12.75 0.849611H4.24998C2.38608 0.848131 0.738714 2.06126 0.186984 3.84161C0.0643121 4.24977 0.00132175 4.67349 -1.90735e-06 5.09963V11.8996C0.000854574 14.2465 1.90314 16.1488 4.24998 16.1496H12.75C15.0969 16.1488 16.9991 14.2465 17 11.8996V5.09963C16.9987 4.67349 16.9357 4.24977 16.813 3.84161ZM4.24998 2.54965H12.75C13.9993 2.55323 15.0631 3.45892 15.266 4.69163L8.49996 8.38062L1.73398 4.69163C1.93685 3.45892 3.00068 2.55319 4.24998 2.54965ZM15.3 11.8996C15.2959 13.3062 14.1566 14.4455 12.75 14.4496H4.24998C2.84336 14.4455 1.70409 13.3062 1.7 11.8996V6.61264L8.092 10.0976C8.34692 10.234 8.65307 10.234 8.90799 10.0976L15.3 6.61264V11.8996Z" fill="white"/>
</g>
<defs>
<clipPath id="clip0_11_293">
<rect width="17" height="17" fill="white"/>
</clipPath>
</defs>
</svg>
