<svg width="12" height="18" viewBox="0 0 12 18" fill="none" xmlns="http://www.w3.org/2000/svg">
<path fill-rule="evenodd" clip-rule="evenodd" d="M4.33334 17.3337H7.66668C8.12668 17.3337 8.50001 16.9603 8.50001 16.5003C8.50001 16.0403 8.12668 15.667 7.66668 15.667H4.33334C3.87334 15.667 3.50001 16.0403 3.50001 16.5003C3.50001 16.9603 3.87334 17.3337 4.33334 17.3337ZM6.00001 0.666992C2.78084 0.666992 0.166676 3.28116 0.166676 6.50033C0.166676 8.13283 1.04001 9.68699 2.13001 10.9453C3.65584 12.7053 5.56334 13.877 5.56334 13.877C5.83168 14.0412 6.16834 14.0412 6.43668 13.877C6.43668 13.877 8.34418 12.7053 9.87001 10.9453C10.96 9.68699 11.8333 8.13283 11.8333 6.50033C11.8333 3.28116 9.21918 0.666992 6.00001 0.666992ZM6.00001 12.1662C6.59168 11.7528 7.68084 10.9262 8.61001 9.85366C9.44001 8.89616 10.1667 7.74199 10.1667 6.50033C10.1667 4.20033 8.30001 2.33366 6.00001 2.33366C3.70001 2.33366 1.83334 4.20033 1.83334 6.50033C1.83334 7.74199 2.56001 8.89616 3.39001 9.85366C4.31918 10.9262 5.40834 11.7528 6.00001 12.1662ZM6.00001 4.00033C4.62001 4.00033 3.50001 5.12033 3.50001 6.50033C3.50001 7.88033 4.62001 9.00033 6.00001 9.00033C7.38001 9.00033 8.50001 7.88033 8.50001 6.50033C8.50001 5.12033 7.38001 4.00033 6.00001 4.00033ZM6.00001 5.66699C6.46001 5.66699 6.83334 6.04033 6.83334 6.50033C6.83334 6.96033 6.46001 7.33366 6.00001 7.33366C5.54001 7.33366 5.16668 6.96033 5.16668 6.50033C5.16668 6.04033 5.54001 5.66699 6.00001 5.66699Z" fill="white"/>
</svg>
