<svg width="20" height="20" viewBox="0 0 20 20" fill="none" xmlns="http://www.w3.org/2000/svg">
<path fill-rule="evenodd" clip-rule="evenodd" d="M7.48083 18.3337C6.32916 18.3262 5.23916 17.6953 4.37583 16.5553C3.25416 15.0753 2.49999 12.6937 2.49999 10.0003C2.49999 7.30699 3.25416 4.92533 4.37583 3.44533C5.23916 2.30533 6.32916 1.67449 7.48083 1.66699H7.51583C8.88833 1.67533 9.99999 2.79283 9.99999 4.16699C9.99999 5.54699 8.87999 6.66699 7.49999 6.66699C6.48999 6.66699 5.61999 6.06699 5.22499 5.20533C4.56249 6.44449 4.16666 8.13866 4.16666 10.0003C4.16666 11.862 4.56249 13.5562 5.22499 14.7953C5.61999 13.9337 6.48999 13.3337 7.49999 13.3337C8.87999 13.3337 9.99999 14.4537 9.99999 15.8337C9.99999 17.2078 8.88833 18.3253 7.51583 18.3337H7.48083ZM7.49999 15.0003C7.95999 15.0003 8.33333 15.3737 8.33333 15.8337C8.33333 16.2937 7.95999 16.667 7.49999 16.667C7.03999 16.667 6.66666 16.2937 6.66666 15.8337C6.66666 15.3737 7.03999 15.0003 7.49999 15.0003ZM14.0992 5.85199C15.1692 6.90949 15.8333 8.37783 15.8333 10.0003C15.8333 11.6103 15.18 13.0687 14.1242 14.1245C13.7983 14.4495 13.7983 14.9778 14.1242 15.3028C14.4492 15.6278 14.9775 15.6278 15.3025 15.3028C16.66 13.9453 17.5 12.0703 17.5 10.0003C17.5 7.91449 16.6467 6.02616 15.2708 4.66616C14.9433 4.34283 14.415 4.34616 14.0917 4.67366C13.7683 5.00033 13.7717 5.52866 14.0992 5.85199ZM11.7567 8.22283C12.215 8.67616 12.5 9.30533 12.5 10.0003C12.5 10.6795 12.2283 11.2953 11.7883 11.7462C11.4675 12.0753 11.4733 12.6037 11.8025 12.9245C12.1317 13.2462 12.66 13.2395 12.9808 12.9103C13.7142 12.1595 14.1667 11.132 14.1667 10.0003C14.1667 8.84116 13.6925 7.79283 12.9283 7.03699C12.6008 6.71366 12.0725 6.71699 11.75 7.04366C11.4267 7.37116 11.4292 7.89949 11.7567 8.22283ZM10.8333 10.0003C10.8333 9.54033 10.46 9.16699 9.99999 9.16699H9.97833C9.76333 9.16699 9.55666 9.25283 9.40416 9.40449C9.25249 9.55699 9.16666 9.76366 9.16666 9.97866V10.022C9.16666 10.237 9.25249 10.4437 9.40416 10.5962C9.55666 10.7478 9.76333 10.8337 9.97833 10.8337H9.99999C10.46 10.8337 10.8333 10.4603 10.8333 10.0003ZM7.49999 3.33366C7.95999 3.33366 8.33333 3.70699 8.33333 4.16699C8.33333 4.62699 7.95999 5.00033 7.49999 5.00033C7.03999 5.00033 6.66666 4.62699 6.66666 4.16699C6.66666 3.70699 7.03999 3.33366 7.49999 3.33366Z" fill="white"/>
</svg>
