<svg width="71" height="71" viewBox="0 0 71 71" fill="none" xmlns="http://www.w3.org/2000/svg">
<g clip-path="url(#clip0_12:370)">
<path d="M20.5424 71C20.0652 71 19.6076 70.8104 19.2701 70.473C18.9327 70.1356 18.7432 69.6779 18.7432 69.2007V37.9493C18.7432 37.4721 18.9327 37.0145 19.2701 36.6771C19.6076 36.3396 20.0652 36.1501 20.5424 36.1501C21.0196 36.1501 21.4772 36.3396 21.8146 36.6771C22.1521 37.0145 22.3416 37.4721 22.3416 37.9493V69.2007C22.3416 69.6779 22.1521 70.1356 21.8146 70.473C21.4772 70.8104 21.0196 71 20.5424 71Z" fill="#9F2D20"/>
<path d="M65.4032 71H5.5944C5.11721 71 4.65957 70.8105 4.32215 70.4731C3.98473 70.1356 3.79517 69.678 3.79517 69.2008V43.8916C3.79517 43.4145 3.98473 42.9568 4.32215 42.6194C4.65957 42.282 5.11721 42.0924 5.5944 42.0924C6.07158 42.0924 6.52922 42.282 6.86664 42.6194C7.20406 42.9568 7.39363 43.4145 7.39363 43.8916V67.4016H63.604V43.8916C63.604 43.4145 63.7935 42.9568 64.1309 42.6194C64.4684 42.282 64.926 42.0924 65.4032 42.0924C65.8804 42.0924 66.338 42.282 66.6754 42.6194C67.0129 42.9568 67.2024 43.4145 67.2024 43.8916V69.2008C67.2024 69.678 67.0129 70.1356 66.6754 70.4731C66.338 70.8105 65.8804 71 65.4032 71Z" fill="#9F2D20"/>
<path d="M55.7953 32.1918C55.3924 32.1915 55.0013 32.0559 54.6846 31.8068L35.5 16.728L16.3142 31.8068C16.129 31.9575 15.9156 32.0698 15.6865 32.1373C15.4574 32.2047 15.2172 32.2258 14.9798 32.1994C14.7425 32.173 14.5127 32.0996 14.304 31.9836C14.0953 31.8675 13.9118 31.711 13.7642 31.5233C13.6166 31.3355 13.5079 31.1203 13.4443 30.8901C13.3807 30.6599 13.3636 30.4194 13.394 30.1825C13.4243 29.9456 13.5016 29.7171 13.6211 29.5104C13.7407 29.3037 13.9002 29.1228 14.0904 28.9784L34.3881 13.0252C34.7051 12.776 35.0967 12.6405 35.5 12.6405C35.9033 12.6405 36.2949 12.776 36.6119 13.0252L56.9084 28.9784C57.2025 29.2097 57.4172 29.527 57.5225 29.886C57.6279 30.245 57.6187 30.6279 57.4962 30.9815C57.3738 31.3351 57.1441 31.6416 56.8392 31.8586C56.5344 32.0755 56.1695 32.192 55.7953 32.1918Z" fill="#9F2D20"/>
<path d="M50.4528 71C49.9756 71 49.518 70.8104 49.1805 70.473C48.8431 70.1356 48.6536 69.6779 48.6536 69.2007V37.9493C48.6536 37.4721 48.8431 37.0145 49.1805 36.6771C49.518 36.3396 49.9756 36.1501 50.4528 36.1501C50.93 36.1501 51.3876 36.3396 51.725 36.6771C52.0625 37.0145 52.252 37.4721 52.252 37.9493V69.2007C52.252 69.6779 52.0625 70.1356 51.725 70.473C51.3876 70.8104 50.93 71 50.4528 71Z" fill="#9F2D20"/>
<path d="M13.0708 39.7486H1.79561C1.48413 39.7487 1.17794 39.668 0.907011 39.5143C0.636079 39.3607 0.409685 39.1393 0.24998 38.8719C0.0902748 38.6044 0.0027307 38.3001 -0.00408564 37.9887C-0.010902 37.6773 0.0632424 37.3695 0.211093 37.0953L8.80062 21.1721C8.95471 20.8864 9.18324 20.6477 9.46198 20.4813C9.74073 20.3149 10.0593 20.227 10.3839 20.2269H15.1987C15.6759 20.2269 16.1335 20.4165 16.4709 20.7539C16.8083 21.0913 16.9979 21.549 16.9979 22.0262C16.9979 22.5033 16.8083 22.961 16.4709 23.2984C16.1335 23.6358 15.6759 23.8254 15.1987 23.8254H11.4611L4.81352 36.1501H13.0708C13.548 36.1501 14.0056 36.3397 14.343 36.6771C14.6805 37.0145 14.87 37.4722 14.87 37.9493C14.87 38.4265 14.6805 38.8842 14.343 39.2216C14.0056 39.559 13.548 39.7486 13.0708 39.7486Z" fill="#9F2D20"/>
<path d="M69.2008 39.7486H57.9256C57.4484 39.7486 56.9908 39.559 56.6534 39.2216C56.316 38.8842 56.1264 38.4265 56.1264 37.9493C56.1264 37.4722 56.316 37.0145 56.6534 36.6771C56.9908 36.3397 57.4484 36.1501 57.9256 36.1501H66.1817L59.5377 23.8254H55.7965C55.3194 23.8254 54.8617 23.6358 54.5243 23.2984C54.1869 22.961 53.9973 22.5033 53.9973 22.0262C53.9973 21.549 54.1869 21.0913 54.5243 20.7539C54.8617 20.4165 55.3194 20.2269 55.7965 20.2269H60.6113C60.9361 20.2268 61.2549 20.3145 61.5339 20.481C61.8129 20.6474 62.0416 20.8862 62.1958 21.1721L70.7841 37.0953C70.9319 37.3694 71.0061 37.6771 70.9993 37.9884C70.9925 38.2997 70.9051 38.6039 70.7455 38.8713C70.586 39.1387 70.3598 39.3601 70.089 39.5139C69.8182 39.6677 69.5122 39.7485 69.2008 39.7486Z" fill="#9F2D20"/>
<path d="M35.5 16.2386C35.0228 16.2386 34.5652 16.0491 34.2278 15.7117C33.8904 15.3742 33.7008 14.9166 33.7008 14.4394V1.79923C33.7008 1.32204 33.8904 0.864403 34.2278 0.526982C34.5652 0.189561 35.0228 0 35.5 0C35.9772 0 36.4349 0.189561 36.7723 0.526982C37.1097 0.864403 37.2993 1.32204 37.2993 1.79923V14.4394C37.2993 14.9166 37.1097 15.3742 36.7723 15.7117C36.4349 16.0491 35.9772 16.2386 35.5 16.2386Z" fill="#9F2D20"/>
<path d="M39.998 71C39.5208 71 39.0632 70.8104 38.7258 70.473C38.3883 70.1356 38.1988 69.678 38.1988 69.2008V59.5629H32.8011V69.2008C32.8011 69.678 32.6115 70.1356 32.2741 70.473C31.9367 70.8104 31.4791 71 31.0019 71C30.5247 71 30.067 70.8104 29.7296 70.473C29.3922 70.1356 29.2026 69.678 29.2026 69.2008V57.7636C29.2026 57.2865 29.3922 56.8288 29.7296 56.4914C30.067 56.154 30.5247 55.9644 31.0019 55.9644H39.998C40.4752 55.9644 40.9328 56.154 41.2703 56.4914C41.6077 56.8288 41.7972 57.2865 41.7972 57.7636V69.2008C41.7972 69.678 41.6077 70.1356 41.2703 70.473C40.9328 70.8104 40.4752 71 39.998 71Z" fill="#9F2D20"/>
<path d="M35.4999 36.6899C34.2545 36.6899 33.0369 36.3205 32.0013 35.6286C30.9658 34.9366 30.1586 33.9531 29.682 32.8024C29.2054 31.6518 29.0807 30.3856 29.3236 29.164C29.5666 27.9425 30.1664 26.8204 31.0471 25.9397C31.9278 25.059 33.0498 24.4593 34.2714 24.2163C35.493 23.9733 36.7591 24.098 37.9098 24.5746C39.0605 25.0513 40.044 25.8584 40.736 26.894C41.4279 27.9296 41.7972 29.1471 41.7972 30.3926C41.7953 32.0621 41.1313 33.6628 39.9507 34.8433C38.7701 36.0239 37.1695 36.688 35.4999 36.6899ZM35.4999 27.6937C34.9662 27.6937 34.4444 27.852 34.0005 28.1486C33.5567 28.4451 33.2108 28.8666 33.0065 29.3598C32.8023 29.8529 32.7488 30.3956 32.853 30.9191C32.9571 31.4426 33.2141 31.9235 33.5916 32.3009C33.969 32.6784 34.4499 32.9354 34.9734 33.0396C35.4969 33.1437 36.0396 33.0902 36.5327 32.886C37.0259 32.6817 37.4474 32.3358 37.744 31.892C38.0405 31.4482 38.1988 30.9264 38.1988 30.3926C38.1982 29.677 37.9136 28.9909 37.4076 28.4849C36.9016 27.9789 36.2155 27.6944 35.4999 27.6937Z" fill="#9F2D20"/>
<path d="M47.2634 11.4407H35.5C35.0229 11.4407 34.5652 11.2511 34.2278 10.9137C33.8904 10.5763 33.7008 10.1187 33.7008 9.64147V1.79923C33.7008 1.32204 33.8904 0.864403 34.2278 0.526982C34.5652 0.189561 35.0229 0 35.5 0H47.2634C47.7406 0 48.1982 0.189561 48.5356 0.526982C48.8731 0.864403 49.0626 1.32204 49.0626 1.79923V9.64147C49.0626 10.1187 48.8731 10.5763 48.5356 10.9137C48.1982 11.2511 47.7406 11.4407 47.2634 11.4407ZM37.2993 7.84224H45.4642V3.59846H37.2993V7.84224Z" fill="#9F2D20"/>
<path d="M13.0708 51.1857C12.5936 51.1857 12.136 50.9961 11.7986 50.6587C11.4612 50.3213 11.2716 49.8637 11.2716 49.3865V46.3278C11.2716 45.8506 11.4612 45.393 11.7986 45.0555C12.136 44.7181 12.5936 44.5286 13.0708 44.5286C13.548 44.5286 14.0057 44.7181 14.3431 45.0555C14.6805 45.393 14.8701 45.8506 14.8701 46.3278V49.3865C14.8701 49.8637 14.6805 50.3213 14.3431 50.6587C14.0057 50.9961 13.548 51.1857 13.0708 51.1857Z" fill="#9F2D20"/>
<path d="M13.0708 62.6216C12.5936 62.6216 12.136 62.432 11.7986 62.0946C11.4612 61.7572 11.2716 61.2995 11.2716 60.8223V57.7636C11.2716 57.2865 11.4612 56.8288 11.7986 56.4914C12.136 56.154 12.5936 55.9644 13.0708 55.9644C13.548 55.9644 14.0057 56.154 14.3431 56.4914C14.6805 56.8288 14.8701 57.2865 14.8701 57.7636V60.8223C14.8701 61.2995 14.6805 61.7572 14.3431 62.0946C14.0057 62.432 13.548 62.6216 13.0708 62.6216Z" fill="#9F2D20"/>
<path d="M57.9292 51.1857C57.452 51.1857 56.9944 50.9961 56.657 50.6587C56.3196 50.3213 56.13 49.8637 56.13 49.3865V46.3278C56.13 45.8506 56.3196 45.393 56.657 45.0555C56.9944 44.7181 57.452 44.5286 57.9292 44.5286C58.4064 44.5286 58.8641 44.7181 59.2015 45.0555C59.5389 45.393 59.7285 45.8506 59.7285 46.3278V49.3865C59.7285 49.8637 59.5389 50.3213 59.2015 50.6587C58.8641 50.9961 58.4064 51.1857 57.9292 51.1857Z" fill="#9F2D20"/>
<path d="M42.9728 51.1857C42.4956 51.1857 42.038 50.9961 41.7006 50.6587C41.3631 50.3213 41.1736 49.8637 41.1736 49.3865V46.3278C41.1736 45.8506 41.3631 45.393 41.7006 45.0555C42.038 44.7181 42.4956 44.5286 42.9728 44.5286C43.45 44.5286 43.9076 44.7181 44.2451 45.0555C44.5825 45.393 44.772 45.8506 44.772 46.3278V49.3865C44.772 49.8637 44.5825 50.3213 44.2451 50.6587C43.9076 50.9961 43.45 51.1857 42.9728 51.1857Z" fill="#9F2D20"/>
<path d="M35.5 51.1857C35.0228 51.1857 34.5652 50.9961 34.2278 50.6587C33.8904 50.3213 33.7008 49.8637 33.7008 49.3865V46.3278C33.7008 45.8506 33.8904 45.393 34.2278 45.0555C34.5652 44.7181 35.0228 44.5286 35.5 44.5286C35.9772 44.5286 36.4349 44.7181 36.7723 45.0555C37.1097 45.393 37.2993 45.8506 37.2993 46.3278V49.3865C37.2993 49.8637 37.1097 50.3213 36.7723 50.6587C36.4349 50.9961 35.9772 51.1857 35.5 51.1857Z" fill="#9F2D20"/>
<path d="M28.0224 51.1857C27.5452 51.1857 27.0875 50.9961 26.7501 50.6587C26.4127 50.3213 26.2231 49.8637 26.2231 49.3865V46.3278C26.2231 45.8506 26.4127 45.393 26.7501 45.0555C27.0875 44.7181 27.5452 44.5286 28.0224 44.5286C28.4996 44.5286 28.9572 44.7181 29.2946 45.0555C29.6321 45.393 29.8216 45.8506 29.8216 46.3278V49.3865C29.8216 49.8637 29.6321 50.3213 29.2946 50.6587C28.9572 50.9961 28.4996 51.1857 28.0224 51.1857Z" fill="#9F2D20"/>
<path d="M57.9292 62.6216C57.452 62.6216 56.9944 62.432 56.657 62.0946C56.3196 61.7572 56.13 61.2995 56.13 60.8223V57.7636C56.13 57.2865 56.3196 56.8288 56.657 56.4914C56.9944 56.154 57.452 55.9644 57.9292 55.9644C58.4064 55.9644 58.8641 56.154 59.2015 56.4914C59.5389 56.8288 59.7285 57.2865 59.7285 57.7636V60.8223C59.7285 61.2995 59.5389 61.7572 59.2015 62.0946C58.8641 62.432 58.4064 62.6216 57.9292 62.6216Z" fill="#9F2D20"/>
</g>
<defs>
<clipPath id="clip0_12:370">
<rect width="71" height="71" fill="white"/>
</clipPath>
</defs>
</svg>
