<svg width="20" height="20" viewBox="0 0 20 20" fill="none" xmlns="http://www.w3.org/2000/svg">
<path d="M18.1291 8.15956C18.0759 7.94923 17.9428 7.76793 17.758 7.6542C17.5732 7.54048 17.3514 7.50329 17.1396 7.55055C16.9279 7.59781 16.7429 7.72579 16.6241 7.90729C16.5052 8.08879 16.4618 8.30948 16.5031 8.52248C16.5297 8.64273 16.5538 8.76465 16.5747 8.88698C16.6357 9.25497 16.6665 9.62736 16.6667 10.0004C16.6667 11.3189 16.2757 12.6079 15.5431 13.7042C14.8106 14.8005 13.7694 15.655 12.5512 16.1596C11.333 16.6642 9.9926 16.7962 8.69939 16.539C7.40619 16.2817 6.2183 15.6468 5.28595 14.7144C4.3536 13.7821 3.71866 12.5942 3.46143 11.301C3.2042 10.0078 3.33622 8.66735 3.8408 7.44917C4.34539 6.231 5.19987 5.18981 6.29619 4.45726C7.39252 3.72472 8.68145 3.33373 9.99999 3.33373C11.1902 3.32979 12.3593 3.64798 13.3833 4.25456C13.4777 4.31 13.5821 4.34631 13.6905 4.36141C13.7989 4.37651 13.9093 4.3701 14.0152 4.34256C14.1212 4.31502 14.2206 4.26688 14.308 4.2009C14.3953 4.13491 14.4688 4.05237 14.5242 3.95798C14.5797 3.86359 14.616 3.75921 14.6311 3.65079C14.6462 3.54237 14.6398 3.43204 14.6122 3.3261C14.5847 3.22015 14.5366 3.12067 14.4706 3.03333C14.4046 2.94599 14.322 2.8725 14.2277 2.81706C12.5776 1.84743 10.6438 1.47615 8.75206 1.76578C6.86027 2.05542 5.12613 2.98825 3.84179 4.40713C2.55746 5.82601 1.80142 7.64421 1.70107 9.5554C1.60071 11.4666 2.16217 13.354 3.29085 14.8996C4.41953 16.4451 6.04644 17.5545 7.89749 18.0406C9.74854 18.5268 11.7106 18.3601 13.4531 17.5686C15.1956 16.7771 16.612 15.4092 17.4637 13.6953C18.3155 11.9815 18.5504 10.0264 18.1291 8.15956Z" fill="white"/>
<path d="M15.6055 6.38914C15.7279 6.56946 15.9161 6.69463 16.1298 6.73783C16.3434 6.78103 16.5654 6.73881 16.7483 6.62023C16.9312 6.50165 17.0603 6.31614 17.108 6.10347C17.1558 5.8908 17.1183 5.6679 17.0036 5.48256C16.828 5.21153 16.637 4.95083 16.4315 4.70173C16.2891 4.53738 16.0881 4.4352 15.8714 4.41699C15.6547 4.39878 15.4395 4.466 15.2717 4.60428C15.1039 4.74257 14.9968 4.94097 14.9732 5.15715C14.9497 5.37332 15.0116 5.59013 15.1457 5.76131C15.3107 5.96172 15.4642 6.17133 15.6055 6.38914Z" fill="white"/>
<path d="M9.16667 5.83333V10C9.16665 10.1548 9.20973 10.3065 9.29108 10.4381C9.37243 10.5698 9.48884 10.6762 9.62725 10.7454L12.9606 12.4121C13.1583 12.5109 13.3872 12.5272 13.5969 12.4573C13.8066 12.3874 13.9799 12.237 14.0787 12.0393C14.1776 11.8416 14.1938 11.6127 14.1239 11.4031C14.054 11.1934 13.9037 11.02 13.706 10.9212L10.8333 9.48483V5.83333C10.8333 5.61232 10.7455 5.40036 10.5893 5.24408C10.433 5.0878 10.221 5 10 5C9.77899 5 9.56703 5.0878 9.41075 5.24408C9.25447 5.40036 9.16667 5.61232 9.16667 5.83333Z" fill="white"/>
</svg>
