<svg width="83" height="83" viewBox="0 0 83 83" fill="none" xmlns="http://www.w3.org/2000/svg">
<g opacity="0.2">
<path d="M41.5 15.3125C49.482 15.3125 55.9765 21.8064 55.9765 29.789C55.9765 37.771 49.482 44.2649 41.5 44.2649C33.518 44.2649 27.0235 37.771 27.0235 29.789C27.0235 21.8064 33.518 15.3125 41.5 15.3125Z" fill="black"/>
<path d="M41.5 0C64.3834 0 83 18.6166 83 41.5C83 52.0878 79.0125 61.7599 72.4635 69.0998C71.0609 62.9409 67.8421 57.3215 63.1422 52.9439C59.8437 49.8714 55.9841 47.5721 51.8123 46.1423C57.2328 42.712 60.8398 36.6639 60.8398 29.7889C60.8398 19.1245 52.1638 10.4491 41.5 10.4491C30.8362 10.4491 22.1609 19.1245 22.1609 29.7889C22.1609 36.6608 25.7646 42.707 31.1814 46.1378C26.6626 47.6855 22.5205 50.2552 19.0434 53.7323C14.795 57.9807 11.8618 63.3208 10.5396 69.1023C3.98814 61.7624 0 52.089 0 41.5C0 18.6166 18.6166 0 41.5 0Z" fill="black"/>
<path d="M68.2316 73.2164C61.0051 79.3171 51.6755 83 41.5 83C31.3245 83 21.9949 79.3164 14.7684 73.2164C15.434 67.1702 18.1512 61.5021 22.4819 57.1714C27.563 52.0903 34.3172 49.292 41.5 49.292C55.1805 49.292 66.7466 59.7284 68.2316 73.2164Z" fill="black"/>
</g>
</svg>
