<svg width="24" height="14" viewBox="0 0 24 14" fill="none" xmlns="http://www.w3.org/2000/svg">
<path fill-rule="evenodd" clip-rule="evenodd" d="M23.4352 0.97153C23.6131 0.423514 23.4352 0.0249299 22.6473 0.0249299H20.0292C19.3684 0.0249299 19.0634 0.373654 18.8854 0.747381C18.8854 0.747381 17.5383 3.93598 15.6573 6.00354C15.0473 6.60142 14.7677 6.80071 14.4373 6.80071C14.2594 6.80071 14.0307 6.60142 14.0307 6.0534V0.9466C14.0307 0.298938 13.8273 0 13.2681 0H9.15042C8.74373 0 8.48958 0.298938 8.48958 0.597876C8.48958 1.22068 9.43 1.37011 9.53168 3.11388V6.90035C9.53168 7.72245 9.3792 7.87188 9.04875 7.87188C8.15913 7.87188 5.99863 4.65836 4.70232 0.99646C4.4481 0.274008 4.19395 0 3.53311 0H0.889613C0.127095 0 0 0.348798 0 0.722452C0 1.39504 0.889613 4.78293 4.14308 9.26693C6.30365 12.3309 9.3792 13.9751 12.1497 13.9751C13.8273 13.9751 14.0307 13.6014 14.0307 12.9787V10.662C14.0307 9.91459 14.1831 9.79009 14.7169 9.79009C15.0982 9.79009 15.7845 9.9893 17.3349 11.4591C19.1142 13.2028 19.4192 14 20.4105 14H23.0285C23.791 14 24.1469 13.6263 23.9436 12.9039C23.7148 12.1815 22.8506 11.1353 21.7322 9.88966C21.1222 9.19221 20.2071 8.41997 19.9275 8.04625C19.5463 7.54809 19.648 7.3488 19.9275 6.90035C19.9022 6.90035 23.1048 2.46622 23.4352 0.97153Z" fill="white"/>
</svg>
